OpenSim_Sub01_EMGBaseline_GRF.mot
version=1
nRows=71
nColumns=19
inDegrees=no
endheader
time	lFx	lFy	lFz	lCOPx	lCOPy	lCOPz	rFx	rFy	rFz	rCOPx	rCOPy	rCOPz	lMx	lMy	lMz	rMx	rMy	rMz
0	0.94170122	326.13704122	17.41685570	0.68022720	0	-0.63889994	-2.37056617	324.80192735	-19.10061240	0.72619620	0	-0.35903155	0	-1.03845008	0	0	1.00626741	0.00000000
0.01000000	0.75701775	326.23151993	17.46186161	0.68062458	0	-0.63901464	-2.59492652	324.75071408	-19.24475644	0.72702437	0	-0.35939756	0	-1.17973245	0	0	1.11868605	0.00000000
0.02000000	0.61707796	326.27093726	17.48834662	0.68074193	0	-0.63903460	-2.69281168	324.69058368	-19.31779312	0.72743537	0	-0.35957698	0	-1.25552462	0	0	1.18947225	0.00000000
0.03000000	0.55212197	326.33600646	17.51534241	0.68067861	0	-0.63898656	-2.70721544	324.62963692	-19.34767372	0.72747271	0	-0.35963951	0	-1.26677331	0	0	1.23112561	0.00000000
0.04000000	0.53929875	326.55165694	17.57173324	0.68058972	0	-0.63893204	-2.71686153	324.58440483	-19.36494178	0.72731764	0	-0.35966358	0	-1.24470695	0	0	1.24173770	0
0.05000000	0.56523258	326.93562320	17.64402528	0.68048893	0	-0.63890363	-2.74254601	324.63834474	-19.38796129	0.72713666	0	-0.35971077	0	-1.21294446	0	0	1.22148680	0
0.06000000	0.61674527	327.43224169	17.70424766	0.68034049	0	-0.63888030	-2.76348192	324.86462399	-19.40959595	0.72705413	0	-0.35980014	0	-1.18164014	0	0	1.18272075	0.00000000
0.07000000	0.67093507	327.92523505	17.74792709	0.68010145	0	-0.63882669	-2.75638113	325.18822381	-19.38902168	0.72699464	0	-0.35988647	0	-1.14989084	0	0	1.15339052	0.00000000
0.08000000	0.70979241	328.33580819	17.77190209	0.67979348	0	-0.63877216	-2.73143114	325.51115475	-19.32695159	0.72691239	0	-0.35994984	0	-1.12456260	0	0	1.13891472	0.00000000
0.09000000	0.70930977	328.60161478	17.77444834	0.67951401	0	-0.63872007	-2.71385932	325.77374915	-19.25989844	0.72684676	0	-0.35999886	0	-1.09750357	0	0	1.15340615	0
0.10000000	0.68740950	328.70264884	17.77299882	0.67931404	0	-0.63865711	-2.72266416	325.88556851	-19.20477564	0.72668287	0	-0.36002373	0	-1.08237406	0	0	1.18530138	0
0.11000000	0.65569933	328.60369953	17.77384433	0.67915072	0	-0.63859332	-2.75649954	325.81393542	-19.15879995	0.72646012	0	-0.36001611	0	-1.07875114	0	0	1.19826017	0
0.12000000	0.62453857	328.38047714	17.77385040	0.67901294	0	-0.63857932	-2.81376584	325.60136273	-19.13288308	0.72630131	0	-0.35999503	0	-1.08594041	0	0	1.18799957	0
0.13000000	0.60822185	328.14633382	17.77010558	0.67889798	0	-0.63862462	-2.85282587	325.20599803	-19.11260057	0.72614157	0	-0.36000630	0	-1.10314859	0	0	1.17058522	0.00000000
0.14000000	0.61952130	327.96182432	17.76184915	0.67871922	0	-0.63863869	-2.83833628	324.74682289	-19.08537654	0.72596292	0	-0.36002580	0	-1.11715670	0	0	1.15233657	0
0.15000000	0.67360132	327.88060658	17.75099550	0.67852154	0	-0.63860117	-2.77751117	324.38431698	-19.04935385	0.72582509	0	-0.36006220	0	-1.10063363	0	0	1.13967538	0.00000000
0.16000000	0.75885359	327.96242475	17.74388982	0.67837464	0	-0.63855047	-2.69689462	324.15454471	-19.01282360	0.72567533	0	-0.36009309	0	-1.06136959	0	0	1.13644962	0
0.17000000	0.84151450	328.17548486	17.72028822	0.67826078	0	-0.63852648	-2.63256725	324.05517706	-18.98934780	0.72552828	0	-0.36010769	0	-1.03517249	0	0	1.14074639	0
0.18000000	0.86756289	328.38756532	17.67276096	0.67814971	0	-0.63851394	-2.59919625	324.02653501	-18.97564715	0.72538844	0	-0.36010581	0	-1.02825867	0	0	1.14485308	0
0.19000000	0.82281009	328.42988099	17.61113753	0.67795575	0	-0.63845858	-2.59510812	323.97131080	-18.97186014	0.72527316	0	-0.36011036	0	-1.03711070	0	0	1.13900675	0
0.20000000	0.73102355	328.25368943	17.55151396	0.67776547	0	-0.63837751	-2.62072349	323.82472074	-18.96718590	0.72523413	0	-0.36010902	0	-1.05515796	0	0	1.12637814	0
0.21000000	0.62197668	327.96223161	17.51573078	0.67764618	0	-0.63833229	-2.64646269	323.57781084	-18.94326134	0.72527440	0	-0.36008948	0	-1.07029504	0	0	1.11897478	0
0.22000000	0.52529230	327.73740210	17.52032829	0.67757101	0	-0.63835479	-2.66228180	323.31903870	-18.88357839	0.72530525	0	-0.36004278	0	-1.07481560	0	0	1.11804515	0
0.23000000	0.46420097	327.68657925	17.56698700	0.67746258	0	-0.63839893	-2.65595782	323.12081059	-18.80615536	0.72520640	0	-0.36000280	0	-1.06999905	0	0	1.13997262	0.00000000
0.24000000	0.45036701	327.78026502	17.62746553	0.67724102	0	-0.63839526	-2.61823438	323.02742094	-18.75801954	0.72496303	0	-0.36002387	0	-1.04577432	0	0	1.17485517	0
0.25000000	0.49671090	327.94679399	17.65943130	0.67690014	0	-0.63834369	-2.54032240	323.03513632	-18.75392061	0.72465744	0	-0.36008736	0	-1.00862478	0	0	1.19553614	-0.00000000
0.26000000	0.58058191	328.10899507	17.64512142	0.67660023	0	-0.63825341	-2.42769283	323.14556293	-18.77772967	0.72438544	0	-0.36016683	0	-0.97957838	0	0	1.19884407	0
0.27000000	0.66842228	328.22008757	17.60041286	0.67650403	0	-0.63818547	-2.32199218	323.34087772	-18.80440019	0.72412900	0	-0.36022559	0	-0.97285650	0	0	1.20295643	-0.00000000
0.28000000	0.73838833	328.26366245	17.53820318	0.67650058	0	-0.63813186	-2.24403025	323.56134847	-18.82800175	0.72394781	0	-0.36023659	0	-0.97527545	0	0	1.19526093	0
0.29000000	0.76402983	328.25785574	17.48545876	0.67636396	0	-0.63805099	-2.21335169	323.74013120	-18.85449891	0.72397923	0	-0.36023277	0	-0.97109015	0	0	1.17035083	-0.00000000
0.30000000	0.75785900	328.28171684	17.45874556	0.67616204	0	-0.63798641	-2.22937063	323.81189838	-18.87360812	0.72410781	0	-0.36024364	0	-0.95852443	0	0	1.15119582	0.00000000
0.31000000	0.75812304	328.40887808	17.45853604	0.67606345	0	-0.63797120	-2.26494822	323.73623071	-18.87727360	0.72418152	0	-0.36023985	0	-0.95171591	0	0	1.14776178	0.00000000
0.32000000	0.78530411	328.63846294	17.47820929	0.67602624	0	-0.63797065	-2.29136516	323.57956286	-18.88802698	0.72413289	0	-0.36019757	0	-0.94101690	0	0	1.16244375	0
0.33000000	0.84566464	328.92370985	17.50273127	0.67595013	0	-0.63796430	-2.28883018	323.37843219	-18.91591588	0.72391112	0	-0.36014256	0	-0.91381174	0	0	1.20057341	0
0.34000000	0.95182625	329.17051752	17.50651606	0.67579710	0	-0.63797308	-2.24231141	323.16113160	-18.93535646	0.72355518	0	-0.36009682	0	-0.89258207	0	0	1.23239388	0
0.35000000	1.08655280	329.33266878	17.48706086	0.67553810	0	-0.63800863	-2.14710965	322.99306173	-18.95247427	0.72317308	0	-0.36011009	0	-0.89232055	0	0	1.24559634	0
0.36000000	1.21482518	329.43921334	17.46548918	0.67520630	0	-0.63803437	-2.02893871	322.91768447	-18.97447501	0.72284323	0	-0.36016796	0	-0.89437385	0	0	1.24094362	0
0.37000000	1.29781146	329.52626249	17.42951758	0.67493025	0	-0.63806463	-1.91671662	322.90745655	-19.01819055	0.72259149	0	-0.36023423	0	-0.89314598	0	0	1.22149214	0
0.38000000	1.33567698	329.62386026	17.38935448	0.67480298	0	-0.63808490	-1.82004097	322.93494232	-19.06858398	0.72249553	0	-0.36027658	0	-0.90657640	0	0	1.19852219	0.00000000
0.39000000	1.34509845	329.80566151	17.38957869	0.67479065	0	-0.63805364	-1.76656632	322.95059572	-19.10149253	0.72263545	0	-0.36027158	0	-0.91380447	0	0	1.17142614	0.00000000
0.40000000	1.34063568	330.15864915	17.44717569	0.67476578	0	-0.63798523	-1.77778755	322.83735685	-19.12397387	0.72283189	0	-0.36023367	0	-0.90846054	0	0	1.14151191	0
0.41000000	1.34993709	330.61921644	17.51873587	0.67467772	0	-0.63792147	-1.85055309	322.57970275	-19.13853026	0.72298754	0	-0.36019974	0	-0.89797107	0	0	1.13270547	0
0.42000000	1.39025721	331.07751400	17.57504969	0.67450766	0	-0.63790702	-1.97868749	322.25418146	-19.15913463	0.72305847	0	-0.36019634	0	-0.88314633	0	0	1.15933274	0
0.43000000	1.45634742	331.47684661	17.61558042	0.67426796	0	-0.63793729	-2.13035802	322.01405124	-19.16777932	0.72302027	0	-0.36019280	0	-0.87466842	0	0	1.19653860	0
0.44000000	1.50495917	331.72015068	17.64882884	0.67408275	0	-0.63793519	-2.25588816	321.98378664	-19.14966330	0.72300596	0	-0.36019075	0	-0.87682192	0	0	1.20393175	0
0.45000000	1.48329889	331.78945543	17.68605668	0.67406628	0	-0.63788833	-2.31216997	322.15675666	-19.12045679	0.72304318	0	-0.36020062	0	-0.89152771	0	0	1.17209318	0
0.46000000	1.39814048	331.74006690	17.71195817	0.67430889	0	-0.63788486	-2.33500919	322.43137726	-19.10030707	0.72308995	0	-0.36021661	0	-0.90898911	0	0	1.12659365	0
0.47000000	1.31066769	331.57246235	17.71144337	0.67467717	0	-0.63795923	-2.37735540	322.70606644	-19.08387294	0.72313283	0	-0.36025930	0	-0.93128764	0	0	1.08267622	0
0.48000000	1.25511748	331.24306072	17.68690853	0.67500980	0	-0.63807750	-2.45315365	322.86939438	-19.05168673	0.72320942	0	-0.36029086	0	-0.96630858	0	0	1.04899183	0
0.49000000	1.20610105	330.72776483	17.66909188	0.67525959	0	-0.63818276	-2.57114075	322.76332588	-19.01495005	0.72331467	0	-0.36027047	0	-1.00902591	0	0	1.03575585	0
0.50000000	1.13212338	330.03245695	17.68685033	0.67548111	0	-0.63820539	-2.73863182	322.31574211	-18.98938067	0.72349226	0	-0.36020053	0	-1.05639951	0	0	1.04170975	0
0.51000000	1.03118622	329.23986763	17.72562655	0.67568506	0	-0.63814932	-2.94388667	321.55223709	-18.97882957	0.72357468	0	-0.36013206	0	-1.10785214	0	0	1.06374270	0.00000000
0.52000000	0.92779444	328.48141521	17.74284231	0.67591533	0	-0.63810374	-3.14147261	320.64655849	-18.97352541	0.72355854	0	-0.36011517	0	-1.15780935	0	0	1.08275343	0
0.53000000	0.83055086	327.86565004	17.71654135	0.67622036	0	-0.63813901	-3.29550413	319.87581791	-18.93720512	0.72355594	0	-0.36011233	0	-1.20016808	0	0	1.09097927	0.00000000
0.54000000	0.73593971	327.44942730	17.64874414	0.67654717	0	-0.63825153	-3.40075552	319.45705927	-18.86363915	0.72374582	0	-0.36008246	0	-1.23442371	0	0	1.09113491	-0.00000000
0.55000000	0.64844319	327.18636880	17.57479203	0.67675729	0	-0.63835917	-3.46788718	319.40332102	-18.78559729	0.72424031	0	-0.36007866	0	-1.26269691	0	0	1.07701629	0
0.56000000	0.58923242	327.10295023	17.52413042	0.67686974	0	-0.63844649	-3.52770280	319.55508955	-18.75243846	0.72481778	0	-0.36009306	0	-1.28440110	0	0	1.04778185	0.00000000
0.57000000	0.57077893	327.18906428	17.51838710	0.67688610	0	-0.63847331	-3.60071162	319.76506216	-18.77824846	0.72522049	0	-0.36010718	0	-1.28744938	0	0	1.02448510	-0.00000000
0.58000000	0.59983402	327.47701860	17.55233769	0.67683479	0	-0.63842658	-3.69390417	320.00096827	-18.83052995	0.72532893	0	-0.36009387	0	-1.26669794	0	0	1.01845253	0
0.59000000	0.70642319	328.08059507	17.61461361	0.67680919	0	-0.63839455	-3.78896018	320.28382575	-18.88871448	0.72520690	0	-0.36004540	0	-1.24643313	0	0	1.02389757	0
0.60000000	0.87097731	328.92191743	17.66515673	0.67665209	0	-0.63841476	-3.87410553	320.58405569	-18.95535349	0.72496124	0	-0.36000179	0	-1.22896785	0	0	1.04133326	0
0.61000000	1.05486910	329.77556979	17.67098258	0.67636656	0	-0.63843691	-3.90993575	320.91093913	-19.03334852	0.72479735	0	-0.35999065	0	-1.20253218	0	0	1.06021979	0
0.62000000	1.22608264	330.45353538	17.64511375	0.67612856	0	-0.63841447	-3.86076546	321.25932997	-19.09102728	0.72473101	0	-0.36000213	0	-1.17046324	0	0	1.07238685	0
0.63000000	1.35984716	330.76634474	17.61522845	0.67607868	0	-0.63836292	-3.72074078	321.59280352	-19.11442556	0.72465172	0	-0.36003907	0	-1.14578754	0	0	1.07768899	-0.00000000
0.64000000	1.45432131	330.67727783	17.58874861	0.67622458	0	-0.63836237	-3.49911353	321.88743404	-19.11096056	0.72447566	0	-0.36008676	0	-1.14200837	0	0	1.07719741	0
0.65000000	1.50487577	330.33619051	17.58760733	0.67648981	0	-0.63843311	-3.20047402	322.22973111	-19.09465029	0.72438186	0	-0.36013872	0	-1.16204573	0	0	1.07084501	0
0.66000000	1.52144682	329.93586278	17.62166783	0.67673567	0	-0.63853016	-2.86013088	322.66965864	-19.07444745	0.72435135	0	-0.36016995	0	-1.18319217	0	0	1.06999370	0
0.67000000	1.53818948	329.62004660	17.67421480	0.67692937	0	-0.63860950	-2.54998130	323.15368919	-19.07785093	0.72423589	0	-0.36020044	0	-1.18897283	0	0	1.07406341	-0.00000000
0.68000000	1.57542599	329.44014344	17.71011916	0.67710893	0	-0.63866065	-2.34251549	323.60484037	-19.11276094	0.72402076	0	-0.36021618	0	-1.19742503	0	0	1.08265732	0
0.69000000	1.59855990	329.35341136	17.70375765	0.67721668	0	-0.63867716	-2.28306832	323.93851375	-19.16893316	0.72384629	0	-0.36020152	0	-1.19720647	0	0	1.09046963	0
0.70000000	1.56446268	329.29257553	17.65654674	0.67728081	0	-0.63866136	-2.35071594	324.07804165	-19.24824453	0.72379259	0	-0.36019345	0	-1.16873870	0	0	1.10500781	0
